name analog
datacolumns 19
datarows 18
range 0.44 0.4485
endheader
time	ground_force_vx	ground_force_vy	ground_force_vz	ground_force_px	ground_force_py	ground_force_pz	l_ground_force_vx	l_ground_force_vy	l_ground_force_vz	l_ground_force_px	l_ground_force_py	l_ground_force_pz	ground_torque_x	ground_torque_y	ground_torque_z	l_ground_torque_x	l_ground_torque_y	l_ground_torque_z
0.44	-0.0	-0.0	-0.0	-14.44442367553711	30.73656272888184	-377.1581726074219	3.1126627922058105	-34.549285888671875	-432.9862976074219	-0.0	-0.0	-0.0	-0.0	-0.0	-0.0	110086.046875	12851.1259765625	-8078.43505859375
0.4405	-0.0	-0.0	-0.0	-14.5469970703125	30.126075744628903	-377.5268859863281	4.071088790893555	-34.63166809082031	-434.6635437011719	-0.0	-0.0	-0.0	-0.0	-0.0	-0.0	109514.859375	12670.55078125	-8162.2275390625
0.441	-0.0	-0.0	-0.0	-14.98736572265625	30.30619239807129	-374.7607116699219	3.988217353820801	-34.70479965209961	-432.294189453125	-0.0	-0.0	-0.0	-0.0	-0.0	-0.0	109502.953125	12669.0234375	-8073.33740234375
0.4415	-0.0	-0.0	-0.0	-14.2645845413208	29.775007247924805	-375.4375	4.167560577392578	-34.45648956298828	-431.9078369140625	-0.0	-0.0	-0.0	-0.0	-0.0	-0.0	109421.5703125	12962.3154296875	-7926.70458984375
0.442	-0.0	-0.0	-0.0	-14.364683151245115	30.30970573425293	-375.0912780761719	4.0788774490356445	-34.714046478271484	-432.5559387207031	-0.0	-0.0	-0.0	-0.0	-0.0	-0.0	109172.25	12671.50390625	-8129.6064453125
0.4425	-0.0	-0.0	-0.0	-14.721487998962402	29.958328247070312	-374.3638000488281	4.517125129699707	-35.15203094482422	-431.5724182128906	-0.0	-0.0	-0.0	-0.0	-0.0	-0.0	108873.703125	12980.4345703125	-7928.99267578125
0.443	-0.0	-0.0	-0.0	-14.644251823425291	30.57001304626465	-373.6847534179688	4.25811767578125	-35.23688507080078	-430.82562255859375	-0.0	-0.0	-0.0	-0.0	-0.0	-0.0	108933.3828125	12853.0576171875	-8015.2119140625
0.4435	-0.0	-0.0	-0.0	-15.350960731506348	30.391780853271484	-371.5987548828125	3.642290353775024	-35.2386474609375	-430.1277770996094	-0.0	-0.0	-0.0	-0.0	-0.0	-0.0	108347.8515625	12930.65234375	-8133.73291015625
0.444	-0.0	-0.0	-0.0	-15.441670417785645	30.043540954589844	-375.7377014160156	3.8246352672576895	-35.06037139892578	-429.0941467285156	-0.0	-0.0	-0.0	-0.0	-0.0	-0.0	108455.4765625	12941.6474609375	-7957.27001953125
0.4445	-0.0	-0.0	-0.0	-15.702662467956545	30.126075744628903	-375.4047546386719	4.690184116363525	-35.49714660644531	-428.0469665527344	-0.0	-0.0	-0.0	-0.0	-0.0	-0.0	108296.921875	12927.890625	-7868.845703125
0.445	-0.0	-0.0	-0.0	-15.438173294067385	30.046445846557617	-372.9705505371094	4.256504535675049	-35.235538482666016	-428.3645935058594	-0.0	-0.0	-0.0	-0.0	-0.0	-0.0	108670.2734375	12621.6845703125	-7897.0966796875
0.4455	-0.0	-0.0	-0.0	-15.78252410888672	30.656221389770508	-375.4241638183594	4.26757287979126	-35.409156799316406	-427.3801879882813	-0.0	-0.0	-0.0	-0.0	-0.0	-0.0	108351.5	12505.62890625	-7837.79248046875
0.446	-0.0	-0.0	-0.0	-15.087142944335938	30.31036949157715	-375.3884582519531	4.617576122283936	-35.404747009277344	-426.2899169921875	-0.0	-0.0	-0.0	-0.0	-0.0	-0.0	108082.9765625	12582.8046875	-7866.1650390625
0.4465	-0.0	-0.0	-0.0	-15.873544692993164	30.65937805175781	-374.005859375	4.707714080810547	-35.238853454589844	-425.2607116699219	-0.0	-0.0	-0.0	-0.0	-0.0	-0.0	107944.4765625	13047.896484375	-7866.57275390625
0.447	-0.0	-0.0	-0.0	-16.06366729736328	30.653644561767575	-373.6529235839844	4.602648735046387	-35.33307266235352	-425.953369140625	-0.0	-0.0	-0.0	-0.0	-0.0	-0.0	107754.3046875	12298.6318359375	-7866.1796875
0.4475	-0.0	-0.0	-0.0	-15.885095596313477	30.834903717041016	-374.6794128417969	4.781768321990967	-35.59221267700195	-425.2723083496094	-0.0	-0.0	-0.0	-0.0	-0.0	-0.0	107764.890625	12763.115234375	-7836.94580078125
0.448	-0.0	-0.0	-0.0	-16.41610336303711	30.749988555908203	-374.0230102539063	3.997578859329224	-35.5894660949707	-424.5848693847656	-0.0	-0.0	-0.0	-0.0	-0.0	-0.0	107570.3984375	12832.2548828125	-7925.56005859375
0.4485	-0.0	-0.0	-0.0	-16.149789810180664	30.575756072998047	-374.7026672363281	4.262238502502441	-35.241722106933594	-422.84967041015625	-0.0	-0.0	-0.0	-0.0	-0.0	-0.0	107418.859375	12621.0302734375	-7777.89892578125
